<?xml version="1.0" encoding="utf-8"?>
<!-- Generator: Adobe Illustrator 24.0.1, SVG Export Plug-In . SVG Version: 6.00 Build 0)  -->
<svg version="1.1" id="Layer_1" xmlns="http://www.w3.org/2000/svg" xmlns:xlink="http://www.w3.org/1999/xlink" x="0px" y="0px"
	 viewBox="0 0 18 18" style="enable-background:new 0 0 18 18;" xml:space="preserve">
<style type="text/css">
	.st0{fill:#FFFFFF;}
</style>
<path class="st0" d="M11.3,1.5c-2,0-3.8,1.2-4.7,2.8c-1,0.5-1.8,1.3-2.3,2.3c-1.7,0.9-2.8,2.6-2.8,4.7c0,2.9,2.3,5.3,5.3,5.3
	c2,0,3.8-1.2,4.7-2.8c1-0.5,1.8-1.3,2.3-2.3c1.7-0.9,2.8-2.6,2.8-4.7C16.5,3.8,14.2,1.5,11.3,1.5z M6.8,15C4.7,15,3,13.3,3,11.3
	C3,10.4,3.3,9.6,3.8,9c0,2.9,2.3,5.3,5.3,5.3C8.4,14.7,7.6,15,6.8,15z M9,12.8c-2.1,0-3.8-1.7-3.8-3.8c0-0.8,0.3-1.6,0.8-2.3
	C6,9.6,8.3,12,11.3,12C10.6,12.5,9.8,12.8,9,12.8z M12.5,10.3c-0.4,0.1-0.8,0.2-1.3,0.2c-2.1,0-3.8-1.7-3.8-3.8
	c0-0.5,0.1-0.9,0.2-1.3C8.1,5.3,8.6,5.3,9,5.3c2.1,0,3.7,1.7,3.7,3.8C12.8,9.5,12.7,9.9,12.5,10.3z M14.3,9c0-2.9-2.3-5.2-5.3-5.3
	C9.6,3.3,10.4,3,11.3,3C13.3,3,15,4.7,15,6.8C15,7.6,14.7,8.4,14.3,9z"/>
</svg>
