<?xml version="1.0" encoding="utf-8"?>
<!-- Generator: Adobe Illustrator 24.0.1, SVG Export Plug-In . SVG Version: 6.00 Build 0)  -->
<svg version="1.1" id="Layer_1" xmlns="http://www.w3.org/2000/svg" xmlns:xlink="http://www.w3.org/1999/xlink" x="0px" y="0px"
	 viewBox="0 0 511 511" style="enable-background:new 0 0 511 511;" xml:space="preserve">
<style type="text/css">
	.st0{fill:#FFFFFF;}
</style>
<g>
	<path class="st0" d="M494.6,40.9h-8.4H14.4C5.9,40.9-1,47.8-1,56.3v287.4V355v0.1c0,8.5,6.9,15.4,15.4,15.4h480.2
		c8.5,0,15.4-6.9,15.4-15.4V355V56.3C510,47.8,503.1,40.9,494.6,40.9z M30.5,246h100.1v97.7H35.5c-2.8,0-5-2.2-5-5V246z
		 M478.6,261.4h-344V246h344V261.4z M292.6,281.3h137.6v17.9H292.6V281.3z M222,279.3v-15.9h150.9v15.9H222z M372.9,301.2h105.7v17
		H372.9V301.2z M478.6,279.3h-48.4v-15.9h48.4V279.3z M166.5,263.4v15.9h-31.9v-15.9H166.5z M247.7,281.3v17.9H134.6v-17.9H247.7z
		 M292.6,301.2v17h-44.9v-17H292.6z M222,301.2v17h-39.4v-17H222z M478.6,322.2v9.3h-344v-9.3H478.6z M478.6,333.5v5.2h-0.1
		c0,2.8-2.2,5-5,5H134.6v-10.2H478.6z M35.5,75.6h438.1c2.8,0,5,2.2,5,5V242H30.5V80.6C30.5,77.8,32.7,75.6,35.5,75.6z"/>
	<path class="st0" d="M225.9,218.5l95-54.8c6.6-3.8,6.6-13.4,0-17.2l-95-54.8c-6.7-3.8-15,1-15,8.6v109.6
		C210.9,217.6,219.2,222.4,225.9,218.5z"/>
</g>
</svg>
